<svg version="1.1" xmlns="http://www.w3.org/2000/svg" xmlns:xlink="http://www.w3.org/1999/xlink" x="0px" y="0px" width="540px"
	 height="1334px" viewBox="404.5 41.5 540 1334" enable-background="new 404.5 41.5 540 1334" xml:space="preserve">
<g id="Layer_2">
	<g>
		<path fill="#58C190" d="M935.5,1178.996c0,4.696-3.808,8.504-8.504,8.504H425.004c-4.697,0-8.504-3.808-8.504-8.504V460.004
			c0-4.696,3.807-8.504,8.504-8.504h501.992c4.696,0,8.504,3.808,8.504,8.504V1178.996z"/>

			<path fill="none" stroke="#515151" stroke-width="2" stroke-linecap="round" stroke-linejoin="round" stroke-dasharray="7.0502,7.0502" d="
			M935.5,1178.996c0,4.696-3.808,8.504-8.504,8.504H425.004c-4.697,0-8.504-3.808-8.504-8.504V460.004
			c0-4.696,3.807-8.504,8.504-8.504h501.992c4.696,0,8.504,3.808,8.504,8.504V1178.996z"/>
	</g>
</g>
<g id="Layer_1">
	<g>
		<path fill="#F2F2F2" d="M750.5,1358.871c0,4.213-3.416,7.629-7.629,7.629H433.129c-4.213,0-7.629-3.416-7.629-7.629v-106.742
			c0-4.213,3.416-7.629,7.629-7.629h309.742c4.213,0,7.629,3.416,7.629,7.629V1358.871z"/>
		<path fill="none" stroke="#515151" stroke-width="2" stroke-miterlimit="10" d="M750.5,1358.871c0,4.213-3.416,7.629-7.629,7.629
			H433.129c-4.213,0-7.629-3.416-7.629-7.629v-106.742c0-4.213,3.416-7.629,7.629-7.629h309.742c4.213,0,7.629,3.416,7.629,7.629
			V1358.871z"/>
	</g>
	<g>
		<path fill="#92D7B7" d="M921.5,1036.871c0,4.213-3.416,7.629-7.629,7.629H433.129c-4.213,0-7.629-3.416-7.629-7.629V796.129
			c0-4.213,3.416-7.629,7.629-7.629h480.742c4.213,0,7.629,3.416,7.629,7.629V1036.871z"/>
		<path fill="none" stroke="#515151" stroke-width="2" stroke-miterlimit="10" d="M921.5,1036.871c0,4.213-3.416,7.629-7.629,7.629
			H433.129c-4.213,0-7.629-3.416-7.629-7.629V796.129c0-4.213,3.416-7.629,7.629-7.629h480.742c4.213,0,7.629,3.416,7.629,7.629
			V1036.871z"/>
	</g>
	<g>
		<path fill="#92D7B7" d="M920.5,1171.871c0,4.213-3.416,7.629-7.629,7.629H433.129c-4.213,0-7.629-3.416-7.629-7.629v-61.742
			c0-4.213,3.416-7.629,7.629-7.629h479.742c4.213,0,7.629,3.416,7.629,7.629V1171.871z"/>
		<path fill="none" stroke="#515151" stroke-width="2" stroke-miterlimit="10" d="M920.5,1171.871c0,4.213-3.416,7.629-7.629,7.629
			H433.129c-4.213,0-7.629-3.416-7.629-7.629v-61.742c0-4.213,3.416-7.629,7.629-7.629h479.742c4.213,0,7.629,3.416,7.629,7.629
			V1171.871z"/>
	</g>
	<g>
		<path fill="#92D7B7" d="M926.5,567.871c0,4.213-3.416,7.629-7.63,7.629H433.13c-4.214,0-7.63-3.416-7.63-7.629v-60.741
			c0-4.213,3.416-7.629,7.63-7.629h485.74c4.214,0,7.63,3.416,7.63,7.629V567.871z"/>
		<path fill="none" stroke="#515151" stroke-width="2" stroke-miterlimit="10" d="M926.5,567.871c0,4.213-3.416,7.629-7.63,7.629
			H433.13c-4.214,0-7.63-3.416-7.63-7.629v-60.741c0-4.213,3.416-7.629,7.63-7.629h485.74c4.214,0,7.63,3.416,7.63,7.629V567.871z"
			/>
	</g>
	<g>
		<path fill="#F2F2F2" d="M842.5,424.871c0,4.213-3.416,7.629-7.629,7.629H638.129c-4.213,0-7.629-3.416-7.629-7.629v-60.741
			c0-4.213,3.416-7.629,7.629-7.629h196.742c4.213,0,7.629,3.416,7.629,7.629V424.871z"/>
		<path fill="none" stroke="#515151" stroke-width="2" stroke-miterlimit="10" d="M842.5,424.871c0,4.213-3.416,7.629-7.629,7.629
			H638.129c-4.213,0-7.629-3.416-7.629-7.629v-60.741c0-4.213,3.416-7.629,7.629-7.629h196.742c4.213,0,7.629,3.416,7.629,7.629
			V424.871z"/>
	</g>
	<text transform="matrix(1 0 0 1 428.3616 476.9424)" fill="#515151" font-family="'Bree Serif'" font-size="20.2067">Histograph</text>
	<g>
		<g>
			<g>
				<path fill="#F2F2F2" d="M662.5,277.871c0,4.213-3.416,7.629-7.629,7.629H504.129c-4.213,0-7.629-3.416-7.629-7.629V64.129
					c0-4.213,3.416-7.629,7.629-7.629h150.742c4.213,0,7.629,3.416,7.629,7.629V277.871z"/>
				<path fill="none" stroke="#515151" stroke-width="2" stroke-miterlimit="10" stroke-dasharray="2.0028,2.0028" d="
					M662.5,277.871c0,4.213-3.416,7.629-7.629,7.629H504.129c-4.213,0-7.629-3.416-7.629-7.629V64.129
					c0-4.213,3.416-7.629,7.629-7.629h150.742c4.213,0,7.629,3.416,7.629,7.629V277.871z"/>
			</g>
			<g>
				<path fill="#E2E2E2" d="M653.5,128.805c0,2.593-2.103,4.695-4.695,4.695H507.196c-2.593,0-4.695-2.102-4.695-4.695v-27.61
					c0-2.593,2.103-4.695,4.695-4.695h141.609c2.593,0,4.695,2.102,4.695,4.695V128.805z"/>
				<path fill="none" stroke="#515151" stroke-width="2" stroke-miterlimit="10" stroke-dasharray="1.9957,1.9957" d="
					M653.5,128.805c0,2.593-2.103,4.695-4.695,4.695H507.196c-2.593,0-4.695-2.102-4.695-4.695v-27.61
					c0-2.593,2.103-4.695,4.695-4.695h141.609c2.593,0,4.695,2.102,4.695,4.695V128.805z"/>
			</g>
			<text transform="matrix(1 0 0 1 508.9768 121.001)" fill="#515151" font-family="'Bree Serif'" font-size="20.2067">PiTs</text>
			<g>
				<path fill="#E2E2E2" d="M653.5,176.805c0,2.593-2.103,4.695-4.695,4.695H507.196c-2.593,0-4.695-2.102-4.695-4.695v-27.61
					c0-2.593,2.103-4.695,4.695-4.695h141.609c2.593,0,4.695,2.102,4.695,4.695V176.805z"/>
				<path fill="none" stroke="#515151" stroke-width="2" stroke-miterlimit="10" stroke-dasharray="1.9957,1.9957" d="
					M653.5,176.805c0,2.593-2.103,4.695-4.695,4.695H507.196c-2.593,0-4.695-2.102-4.695-4.695v-27.61
					c0-2.593,2.103-4.695,4.695-4.695h141.609c2.593,0,4.695,2.102,4.695,4.695V176.805z"/>
			</g>
			<text transform="matrix(1 0 0 1 508.9768 168.8823)" fill="#515151" font-family="'Bree Serif'" font-size="20.2067">Relations</text>
			<g>
				<path fill="#E2E2E2" d="M653.5,224.805c0,2.593-2.103,4.695-4.695,4.695H507.196c-2.593,0-4.695-2.102-4.695-4.695v-27.61
					c0-2.593,2.103-4.695,4.695-4.695h141.609c2.593,0,4.695,2.102,4.695,4.695V224.805z"/>
				<path fill="none" stroke="#515151" stroke-width="2" stroke-miterlimit="10" stroke-dasharray="1.9957,1.9957" d="
					M653.5,224.805c0,2.593-2.103,4.695-4.695,4.695H507.196c-2.593,0-4.695-2.102-4.695-4.695v-27.61
					c0-2.593,2.103-4.695,4.695-4.695h141.609c2.593,0,4.695,2.102,4.695,4.695V224.805z"/>
			</g>
			<text transform="matrix(1 0 0 1 508.9768 216.7637)" fill="#515151" font-family="'Bree Serif'" font-size="20.2067">Meta</text>
			<g>
				<path fill="#E2E2E2" d="M653.5,272.805c0,2.593-2.103,4.695-4.695,4.695H507.196c-2.593,0-4.695-2.102-4.695-4.695v-27.61
					c0-2.593,2.103-4.695,4.695-4.695h141.609c2.593,0,4.695,2.102,4.695,4.695V272.805z"/>
				<path fill="none" stroke="#515151" stroke-width="2" stroke-miterlimit="10" stroke-dasharray="1.9957,1.9957" d="
					M653.5,272.805c0,2.593-2.103,4.695-4.695,4.695H507.196c-2.593,0-4.695-2.102-4.695-4.695v-27.61
					c0-2.593,2.103-4.695,4.695-4.695h141.609c2.593,0,4.695,2.102,4.695,4.695V272.805z"/>
			</g>
			<text transform="matrix(1 0 0 1 508.9758 264.6436)" fill="#515151" font-family="'Bree Serif'" font-size="20.2067">Rules</text>
			<text transform="matrix(1 0 0 1 508.2473 80.1436)" fill="#515151" font-family="'Bree Serif'" font-size="20.2067">Layer data</text>
		</g>
		<g opacity="0.5">
			<g>
				<path fill="#F2F2F2" d="M726.5,277.871c0,4.213-3.416,7.629-7.629,7.629h-29.742c-4.213,0-7.629-3.416-7.629-7.629V64.129
					c0-4.213,3.416-7.629,7.629-7.629h29.742c4.213,0,7.629,3.416,7.629,7.629V277.871z"/>

					<path fill="none" stroke="#515151" stroke-width="2" stroke-linecap="round" stroke-linejoin="round" stroke-dasharray="1.9961,2.9942" d="
					M726.5,277.871c0,4.213-3.416,7.629-7.629,7.629h-29.742c-4.213,0-7.629-3.416-7.629-7.629V64.129
					c0-4.213,3.416-7.629,7.629-7.629h29.742c4.213,0,7.629,3.416,7.629,7.629V277.871z"/>
			</g>
			<g>
				<path fill="#E2E2E2" d="M719.5,128.805c0,2.593-2.103,4.695-4.695,4.695h-22.609c-2.593,0-4.695-2.102-4.695-4.695v-27.61
					c0-2.593,2.103-4.695,4.695-4.695h22.609c2.593,0,4.695,2.102,4.695,4.695V128.805z"/>

					<path fill="none" stroke="#515151" stroke-width="2" stroke-linecap="round" stroke-linejoin="round" stroke-dasharray="1.9932,2.9899" d="
					M719.5,128.805c0,2.593-2.103,4.695-4.695,4.695h-22.609c-2.593,0-4.695-2.102-4.695-4.695v-27.61
					c0-2.593,2.103-4.695,4.695-4.695h22.609c2.593,0,4.695,2.102,4.695,4.695V128.805z"/>
			</g>
			<g>
				<path fill="#E2E2E2" d="M719.5,176.805c0,2.593-2.103,4.695-4.695,4.695h-22.609c-2.593,0-4.695-2.102-4.695-4.695v-27.61
					c0-2.593,2.103-4.695,4.695-4.695h22.609c2.593,0,4.695,2.102,4.695,4.695V176.805z"/>

					<path fill="none" stroke="#515151" stroke-width="2" stroke-linecap="round" stroke-linejoin="round" stroke-dasharray="1.9932,2.9899" d="
					M719.5,176.805c0,2.593-2.103,4.695-4.695,4.695h-22.609c-2.593,0-4.695-2.102-4.695-4.695v-27.61
					c0-2.593,2.103-4.695,4.695-4.695h22.609c2.593,0,4.695,2.102,4.695,4.695V176.805z"/>
			</g>
			<g>
				<path fill="#E2E2E2" d="M719.5,224.805c0,2.593-2.103,4.695-4.695,4.695h-22.609c-2.593,0-4.695-2.102-4.695-4.695v-27.61
					c0-2.593,2.103-4.695,4.695-4.695h22.609c2.593,0,4.695,2.102,4.695,4.695V224.805z"/>

					<path fill="none" stroke="#515151" stroke-width="2" stroke-linecap="round" stroke-linejoin="round" stroke-dasharray="1.9932,2.9899" d="
					M719.5,224.805c0,2.593-2.103,4.695-4.695,4.695h-22.609c-2.593,0-4.695-2.102-4.695-4.695v-27.61
					c0-2.593,2.103-4.695,4.695-4.695h22.609c2.593,0,4.695,2.102,4.695,4.695V224.805z"/>
			</g>
			<g>
				<path fill="#E2E2E2" d="M719.5,272.805c0,2.593-2.103,4.695-4.695,4.695h-22.609c-2.593,0-4.695-2.102-4.695-4.695v-27.61
					c0-2.593,2.103-4.695,4.695-4.695h22.609c2.593,0,4.695,2.102,4.695,4.695V272.805z"/>

					<path fill="none" stroke="#515151" stroke-width="2" stroke-linecap="round" stroke-linejoin="round" stroke-dasharray="1.9932,2.9899" d="
					M719.5,272.805c0,2.593-2.103,4.695-4.695,4.695h-22.609c-2.593,0-4.695-2.102-4.695-4.695v-27.61
					c0-2.593,2.103-4.695,4.695-4.695h22.609c2.593,0,4.695,2.102,4.695,4.695V272.805z"/>
			</g>
			<text transform="matrix(1 0 0 1 693.2864 80.1436)" fill="#515151" font-family="'Bree Serif'" font-size="20.2067">L2</text>
		</g>
		<g opacity="0.5">
			<g>
				<path fill="#F2F2F2" d="M789.5,277.871c0,4.213-3.416,7.629-7.629,7.629h-29.742c-4.213,0-7.629-3.416-7.629-7.629V64.129
					c0-4.213,3.416-7.629,7.629-7.629h29.742c4.213,0,7.629,3.416,7.629,7.629V277.871z"/>

					<path fill="none" stroke="#515151" stroke-width="2" stroke-linecap="round" stroke-linejoin="round" stroke-dasharray="1.9961,2.9942" d="
					M789.5,277.871c0,4.213-3.416,7.629-7.629,7.629h-29.742c-4.213,0-7.629-3.416-7.629-7.629V64.129
					c0-4.213,3.416-7.629,7.629-7.629h29.742c4.213,0,7.629,3.416,7.629,7.629V277.871z"/>
			</g>
			<g>
				<path fill="#E2E2E2" d="M783.5,128.805c0,2.593-2.103,4.695-4.695,4.695h-22.609c-2.593,0-4.695-2.102-4.695-4.695v-27.61
					c0-2.593,2.103-4.695,4.695-4.695h22.609c2.593,0,4.695,2.102,4.695,4.695V128.805z"/>

					<path fill="none" stroke="#515151" stroke-width="2" stroke-linecap="round" stroke-linejoin="round" stroke-dasharray="1.9932,2.9898" d="
					M783.5,128.805c0,2.593-2.103,4.695-4.695,4.695h-22.609c-2.593,0-4.695-2.102-4.695-4.695v-27.61
					c0-2.593,2.103-4.695,4.695-4.695h22.609c2.593,0,4.695,2.102,4.695,4.695V128.805z"/>
			</g>
			<g>
				<path fill="#E2E2E2" d="M783.5,176.805c0,2.593-2.103,4.695-4.695,4.695h-22.609c-2.593,0-4.695-2.102-4.695-4.695v-27.61
					c0-2.593,2.103-4.695,4.695-4.695h22.609c2.593,0,4.695,2.102,4.695,4.695V176.805z"/>

					<path fill="none" stroke="#515151" stroke-width="2" stroke-linecap="round" stroke-linejoin="round" stroke-dasharray="1.9932,2.9898" d="
					M783.5,176.805c0,2.593-2.103,4.695-4.695,4.695h-22.609c-2.593,0-4.695-2.102-4.695-4.695v-27.61
					c0-2.593,2.103-4.695,4.695-4.695h22.609c2.593,0,4.695,2.102,4.695,4.695V176.805z"/>
			</g>
			<g>
				<path fill="#E2E2E2" d="M783.5,224.805c0,2.593-2.103,4.695-4.695,4.695h-22.609c-2.593,0-4.695-2.102-4.695-4.695v-27.61
					c0-2.593,2.103-4.695,4.695-4.695h22.609c2.593,0,4.695,2.102,4.695,4.695V224.805z"/>

					<path fill="none" stroke="#515151" stroke-width="2" stroke-linecap="round" stroke-linejoin="round" stroke-dasharray="1.9932,2.9898" d="
					M783.5,224.805c0,2.593-2.103,4.695-4.695,4.695h-22.609c-2.593,0-4.695-2.102-4.695-4.695v-27.61
					c0-2.593,2.103-4.695,4.695-4.695h22.609c2.593,0,4.695,2.102,4.695,4.695V224.805z"/>
			</g>
			<g>
				<path fill="#E2E2E2" d="M783.5,272.805c0,2.593-2.103,4.695-4.695,4.695h-22.609c-2.593,0-4.695-2.102-4.695-4.695v-27.61
					c0-2.593,2.103-4.695,4.695-4.695h22.609c2.593,0,4.695,2.102,4.695,4.695V272.805z"/>

					<path fill="none" stroke="#515151" stroke-width="2" stroke-linecap="round" stroke-linejoin="round" stroke-dasharray="1.9932,2.9898" d="
					M783.5,272.805c0,2.593-2.103,4.695-4.695,4.695h-22.609c-2.593,0-4.695-2.102-4.695-4.695v-27.61
					c0-2.593,2.103-4.695,4.695-4.695h22.609c2.593,0,4.695,2.102,4.695,4.695V272.805z"/>
			</g>
			<text transform="matrix(1 0 0 1 756.7678 80.1436)" fill="#515151" font-family="'Bree Serif'" font-size="20.2067">L3</text>
		</g>
		<g opacity="0.5">
			<g>
				<path fill="#F2F2F2" d="M853.5,277.871c0,4.213-3.416,7.629-7.629,7.629h-29.742c-4.213,0-7.629-3.416-7.629-7.629V64.129
					c0-4.213,3.416-7.629,7.629-7.629h29.742c4.213,0,7.629,3.416,7.629,7.629V277.871z"/>

					<path fill="none" stroke="#515151" stroke-width="2" stroke-linecap="round" stroke-linejoin="round" stroke-dasharray="1.9961,2.9942" d="
					M853.5,277.871c0,4.213-3.416,7.629-7.629,7.629h-29.742c-4.213,0-7.629-3.416-7.629-7.629V64.129
					c0-4.213,3.416-7.629,7.629-7.629h29.742c4.213,0,7.629,3.416,7.629,7.629V277.871z"/>
			</g>
			<g>
				<path fill="#E2E2E2" d="M846.5,128.805c0,2.593-2.103,4.695-4.695,4.695h-22.609c-2.593,0-4.695-2.102-4.695-4.695v-27.61
					c0-2.593,2.103-4.695,4.695-4.695h22.609c2.593,0,4.695,2.102,4.695,4.695V128.805z"/>

					<path fill="none" stroke="#515151" stroke-width="2" stroke-linecap="round" stroke-linejoin="round" stroke-dasharray="1.9932,2.9898" d="
					M846.5,128.805c0,2.593-2.103,4.695-4.695,4.695h-22.609c-2.593,0-4.695-2.102-4.695-4.695v-27.61
					c0-2.593,2.103-4.695,4.695-4.695h22.609c2.593,0,4.695,2.102,4.695,4.695V128.805z"/>
			</g>
			<g>
				<path fill="#E2E2E2" d="M846.5,176.805c0,2.593-2.103,4.695-4.695,4.695h-22.609c-2.593,0-4.695-2.102-4.695-4.695v-27.61
					c0-2.593,2.103-4.695,4.695-4.695h22.609c2.593,0,4.695,2.102,4.695,4.695V176.805z"/>

					<path fill="none" stroke="#515151" stroke-width="2" stroke-linecap="round" stroke-linejoin="round" stroke-dasharray="1.9932,2.9898" d="
					M846.5,176.805c0,2.593-2.103,4.695-4.695,4.695h-22.609c-2.593,0-4.695-2.102-4.695-4.695v-27.61
					c0-2.593,2.103-4.695,4.695-4.695h22.609c2.593,0,4.695,2.102,4.695,4.695V176.805z"/>
			</g>
			<g>
				<path fill="#E2E2E2" d="M846.5,224.805c0,2.593-2.103,4.695-4.695,4.695h-22.609c-2.593,0-4.695-2.102-4.695-4.695v-27.61
					c0-2.593,2.103-4.695,4.695-4.695h22.609c2.593,0,4.695,2.102,4.695,4.695V224.805z"/>

					<path fill="none" stroke="#515151" stroke-width="2" stroke-linecap="round" stroke-linejoin="round" stroke-dasharray="1.9932,2.9898" d="
					M846.5,224.805c0,2.593-2.103,4.695-4.695,4.695h-22.609c-2.593,0-4.695-2.102-4.695-4.695v-27.61
					c0-2.593,2.103-4.695,4.695-4.695h22.609c2.593,0,4.695,2.102,4.695,4.695V224.805z"/>
			</g>
			<g>
				<path fill="#E2E2E2" d="M846.5,272.805c0,2.593-2.103,4.695-4.695,4.695h-22.609c-2.593,0-4.695-2.102-4.695-4.695v-27.61
					c0-2.593,2.103-4.695,4.695-4.695h22.609c2.593,0,4.695,2.102,4.695,4.695V272.805z"/>

					<path fill="none" stroke="#515151" stroke-width="2" stroke-linecap="round" stroke-linejoin="round" stroke-dasharray="1.9932,2.9898" d="
					M846.5,272.805c0,2.593-2.103,4.695-4.695,4.695h-22.609c-2.593,0-4.695-2.102-4.695-4.695v-27.61
					c0-2.593,2.103-4.695,4.695-4.695h22.609c2.593,0,4.695,2.102,4.695,4.695V272.805z"/>
			</g>
			<text transform="matrix(1 0 0 1 820.2483 80.1436)" fill="#515151" font-family="'Bree Serif'" font-size="20.2067">L4</text>
		</g>
	</g>
	<g opacity="0.8">
		<path fill="#C6F7DE" d="M574.5,1029.805c0,2.593-2.103,4.695-4.695,4.695H436.196c-2.593,0-4.695-2.102-4.695-4.695v-201.61
			c0-2.593,2.102-4.695,4.695-4.695h133.609c2.593,0,4.695,2.102,4.695,4.695V1029.805z"/>
		<path fill="none" stroke="#000000" stroke-width="2" stroke-miterlimit="10" d="M574.5,1029.805c0,2.593-2.103,4.695-4.695,4.695
			H436.196c-2.593,0-4.695-2.102-4.695-4.695v-201.61c0-2.593,2.102-4.695,4.695-4.695h133.609c2.593,0,4.695,2.102,4.695,4.695
			V1029.805z"/>
	</g>
	<text transform="matrix(1 0 0 1 443.0081 848.0347)" opacity="0.7" font-family="'Bree Serif'" font-size="20.2067">Neo4j</text>
	<g opacity="0.8">
		<path fill="#C6F7DE" d="M743.5,1029.805c0,2.593-2.103,4.695-4.695,4.695H605.196c-2.593,0-4.695-2.102-4.695-4.695v-201.61
			c0-2.593,2.103-4.695,4.695-4.695h133.609c2.593,0,4.695,2.102,4.695,4.695V1029.805z"/>
		<path fill="none" stroke="#000000" stroke-width="2" stroke-miterlimit="10" d="M743.5,1029.805c0,2.593-2.103,4.695-4.695,4.695
			H605.196c-2.593,0-4.695-2.102-4.695-4.695v-201.61c0-2.593,2.103-4.695,4.695-4.695h133.609c2.593,0,4.695,2.102,4.695,4.695
			V1029.805z"/>
	</g>
	<text transform="matrix(1 0 0 1 612.2737 848.0347)" opacity="0.7" font-family="'Bree Serif'" font-size="20.2067">Elasticsearch</text>
	<g>
		<path fill="#E2E2E2" d="M574.5,1352.805c0,2.593-2.103,4.695-4.695,4.695H436.196c-2.593,0-4.695-2.103-4.695-4.695v-67.609
			c0-2.593,2.102-4.695,4.695-4.695h133.609c2.593,0,4.695,2.103,4.695,4.695V1352.805z"/>
		<path fill="none" stroke="#515151" stroke-width="2" stroke-miterlimit="10" d="M574.5,1352.805c0,2.593-2.103,4.695-4.695,4.695
			H436.196c-2.593,0-4.695-2.103-4.695-4.695v-67.609c0-2.593,2.102-4.695,4.695-4.695h133.609c2.593,0,4.695,2.103,4.695,4.695
			V1352.805z"/>
	</g>
	<text transform="matrix(1 0 0 1 443.0081 1305.0352)" opacity="0.7" font-family="'Bree Serif'" font-size="20.2067">Map</text>
	<g>
		<path fill="#E2E2E2" d="M743.5,1352.805c0,2.593-2.103,4.695-4.695,4.695H605.196c-2.593,0-4.695-2.103-4.695-4.695v-67.609
			c0-2.593,2.103-4.695,4.695-4.695h133.609c2.593,0,4.695,2.103,4.695,4.695V1352.805z"/>
		<path fill="none" stroke="#515151" stroke-width="2" stroke-miterlimit="10" d="M743.5,1352.805c0,2.593-2.103,4.695-4.695,4.695
			H605.196c-2.593,0-4.695-2.103-4.695-4.695v-67.609c0-2.593,2.103-4.695,4.695-4.695h133.609c2.593,0,4.695,2.103,4.695,4.695
			V1352.805z"/>
	</g>
	<text transform="matrix(1 0 0 1 612.2737 1305.0352)" opacity="0.7" font-family="'Bree Serif'" font-size="20.2067">Graph</text>
	<g opacity="0.8">
		<path fill="#C6F7DE" d="M912.5,1029.805c0,2.593-2.103,4.695-4.695,4.695H774.196c-2.593,0-4.695-2.102-4.695-4.695v-201.61
			c0-2.593,2.103-4.695,4.695-4.695h133.609c2.593,0,4.695,2.102,4.695,4.695V1029.805z"/>
		<path fill="none" stroke="#000000" stroke-width="2" stroke-miterlimit="10" d="M912.5,1029.805c0,2.593-2.103,4.695-4.695,4.695
			H774.196c-2.593,0-4.695-2.102-4.695-4.695v-201.61c0-2.593,2.103-4.695,4.695-4.695h133.609c2.593,0,4.695,2.102,4.695,4.695
			V1029.805z"/>
	</g>
	<text transform="matrix(1 0 0 1 781.2737 848.0347)" opacity="0.7"><tspan x="0" y="0" font-family="'Bree Serif'" font-size="20.2067">Reasoning</tspan><tspan x="0" y="24.248" font-family="'Bree Serif'" font-size="20.2067">engine</tspan></text>
	<text transform="matrix(1 0 0 1 437.7297 811.981)" opacity="0.7" font-family="'Bree Serif'" font-size="20.2067">Histograph Core</text>
	<text transform="matrix(1 0 0 1 440.0754 1126.3936)" opacity="0.7" font-family="'Bree Serif'" font-size="20.2067">Histograph API</text>
	<text transform="matrix(1 0 0 1 438.0754 1267.9941)" opacity="0.7" font-family="'Bree Serif'" font-size="20.2067">Histograph Viewer</text>
	<text transform="matrix(1 0 0 1 438.1819 523.2578)" fill="#464646" font-family="'Bree Serif'" font-size="20.2067">Histograph IO</text>
	<g>
		<g>

				<line fill="none" stroke="#464646" stroke-width="3" stroke-linecap="round" stroke-linejoin="round" x1="578" y1="295.5" x2="578" y2="484.5"/>
			<g>
				<polygon fill="#464646" points="573.5,479.042 578.5,483.619 583.5,479.042 583.5,482.926 578.5,487.5 573.5,482.926 				"/>
			</g>
		</g>
	</g>
	<g>
		<g>

				<line fill="none" stroke="#464646" stroke-width="3" stroke-linecap="round" stroke-linejoin="round" x1="704" y1="295.5" x2="704" y2="339.5"/>
			<g>
				<polygon fill="#464646" points="699.5,334.042 704.5,338.619 709.5,334.042 709.5,337.926 704.5,342.5 699.5,337.926 				"/>
			</g>
		</g>
	</g>
	<g>
		<g>

				<line fill="none" stroke="#464646" stroke-width="3" stroke-linecap="round" stroke-linejoin="round" x1="736" y1="440.5" x2="736" y2="484.5"/>
			<g>
				<polygon fill="#464646" points="731.5,479.042 736.5,483.619 741.5,479.042 741.5,482.926 736.5,487.5 731.5,482.926 				"/>
			</g>
		</g>
	</g>
	<g>
		<g>

				<line fill="none" stroke="#464646" stroke-width="3" stroke-linecap="round" stroke-linejoin="round" x1="767" y1="295.5" x2="767" y2="339.5"/>
			<g>
				<polygon fill="#464646" points="762.5,334.042 767.5,338.619 772.5,334.042 772.5,337.926 767.5,342.5 762.5,337.926 				"/>
			</g>
		</g>
	</g>
	<g>
		<g>

				<line fill="none" stroke="#464646" stroke-width="3" stroke-linecap="round" stroke-linejoin="round" x1="645" y1="295.5" x2="645" y2="339.5"/>
			<g>
				<polygon fill="#464646" points="640.5,334.042 645.5,338.619 650.5,334.042 650.5,337.926 645.5,342.5 640.5,337.926 				"/>
			</g>
		</g>
	</g>
	<g>
		<g>

				<line fill="none" stroke="#464646" stroke-width="3" stroke-linecap="round" stroke-linejoin="round" x1="676" y1="585.5" x2="676" y2="620.5"/>
			<g>
				<polygon fill="#464646" points="671.5,615.041 676.5,619.618 681.5,615.041 681.5,618.925 676.5,623.5 671.5,618.925 				"/>
			</g>
		</g>
	</g>
	<g>
		<g>

				<line fill="none" stroke="#464646" stroke-width="3" stroke-linecap="round" stroke-linejoin="round" x1="676" y1="739.5" x2="676" y2="774.5"/>
			<g>
				<polygon fill="#464646" points="671.5,769.041 676.5,773.618 681.5,769.041 681.5,772.925 676.5,777.5 671.5,772.925 				"/>
			</g>
		</g>
	</g>
	<g>
		<g>

				<line fill="none" stroke="#464646" stroke-width="3" stroke-linecap="round" stroke-linejoin="round" x1="588" y1="1197.5" x2="588" y2="1232.5"/>
			<g>
				<polygon fill="#464646" points="583.5,1227.042 588.5,1231.619 593.5,1227.042 593.5,1230.926 588.5,1235.5 583.5,1230.926
					"/>
			</g>
		</g>
	</g>
	<g>
		<g>

				<line fill="none" stroke="#464646" stroke-width="3" stroke-linecap="round" stroke-linejoin="round" x1="672" y1="1054.5" x2="672" y2="1089.5"/>
			<g>
				<polygon fill="#464646" points="667.5,1084.042 672.5,1088.619 677.5,1084.042 677.5,1087.926 672.5,1092.5 667.5,1087.926
					"/>
			</g>
		</g>
	</g>
	<g>
		<g>

				<line fill="none" stroke="#464646" stroke-width="3" stroke-linecap="round" stroke-linejoin="round" x1="503" y1="1054.5" x2="503" y2="1089.5"/>
			<g>
				<polygon fill="#464646" points="498.5,1084.042 503.5,1088.619 508.5,1084.042 508.5,1087.926 503.5,1092.5 498.5,1087.926
					"/>
			</g>
		</g>
	</g>
	<g>
		<g>

				<line fill="none" stroke="#464646" stroke-width="3" stroke-linecap="round" stroke-linejoin="round" x1="830" y1="295.5" x2="830" y2="339.5"/>
			<g>
				<polygon fill="#464646" points="825.5,334.042 830.5,338.619 835.5,334.042 835.5,337.926 830.5,342.5 825.5,337.926 				"/>
			</g>
		</g>
	</g>
	<g>

			<path fill-opacity="0.2" stroke="#4F4D4D" stroke-width="0.8803" stroke-linecap="round" stroke-linejoin="round" stroke-miterlimit="10" d="
			M884.5,1007.113l-2.612-0.302l-0.265,2.305c-1.04,0.062-2.033,0.343-2.923,0.811l-1.439-1.826l-2.06,1.642l1.432,1.816
			c-0.704,0.797-1.234,1.756-1.536,2.823l-2.36-0.274l-0.301,2.625l2.396,0.28c0.082,0.983,0.361,1.919,0.802,2.765l-1.817,1.449
			l1.632,2.07l1.807-1.44c0.774,0.691,1.699,1.217,2.731,1.525l-0.294,2.557l2.608,0.304l0.298-2.571
			c1.007-0.072,1.966-0.353,2.827-0.808l1.441,1.827l2.059-1.64l-1.432-1.818c0.649-0.737,1.16-1.607,1.473-2.578l2.488,0.29
			l0.301-2.626l-2.449-0.284c-0.052-1.077-0.333-2.103-0.812-3.02l1.817-1.448l-1.631-2.072l-1.81,1.44
			c-0.749-0.67-1.642-1.189-2.638-1.5L884.5,1007.113z M885.496,1016.87c-0.22,1.913-1.939,3.284-3.839,3.062
			c-1.903-0.221-3.265-1.951-3.044-3.863c0.218-1.911,1.938-3.283,3.84-3.061C884.353,1013.227,885.717,1014.959,885.496,1016.87z"
			/>

			<path fill-opacity="0.2" stroke="#4F4D4D" stroke-width="0.8803" stroke-linecap="round" stroke-linejoin="round" stroke-miterlimit="10" d="
			M900.861,994.923l-2.448-0.965l-0.841,2.16c-1.022-0.207-2.056-0.191-3.033,0.032l-0.927-2.138l-2.41,1.059l0.925,2.125
			c-0.884,0.59-1.641,1.381-2.207,2.333l-2.21-0.871l-0.959,2.461l2.245,0.886c-0.17,0.972-0.139,1.95,0.07,2.879l-2.124,0.933
			l1.051,2.421l2.115-0.927c0.57,0.866,1.331,1.614,2.25,2.177l-0.934,2.396l2.446,0.963l0.939-2.407
			c0.992,0.189,1.99,0.164,2.939-0.053l0.926,2.137l2.412-1.057l-0.924-2.126c0.815-0.545,1.529-1.255,2.078-2.113l2.333,0.92
			l0.959-2.461l-2.297-0.905c0.224-1.054,0.212-2.119-0.015-3.128l2.123-0.933l-1.05-2.421l-2.112,0.927
			c-0.557-0.841-1.288-1.574-2.171-2.13L900.861,994.923z M899.342,1004.611c-0.698,1.792-2.709,2.676-4.491,1.973
			c-1.781-0.704-2.658-2.726-1.96-4.518s2.71-2.675,4.491-1.972S900.04,1002.819,899.342,1004.611z"/>
	</g>
	<g>
		<path fill="#92D7B7" d="M807.5,721.871c0,4.213-3.416,7.629-7.629,7.629H548.129c-4.213,0-7.629-3.416-7.629-7.629v-81.741
			c0-4.213,3.416-7.629,7.629-7.629h251.742c4.213,0,7.629,3.416,7.629,7.629V721.871z"/>
		<path fill="none" stroke="#515151" stroke-width="2" stroke-miterlimit="10" d="M807.5,721.871c0,4.213-3.416,7.629-7.629,7.629
			H548.129c-4.213,0-7.629-3.416-7.629-7.629v-81.741c0-4.213,3.416-7.629,7.629-7.629h251.742c4.213,0,7.629,3.416,7.629,7.629
			V721.871z"/>
	</g>
	<text transform="matrix(1 0 0 1 551.5637 655.8267)" opacity="0.7" font-family="'Bree Serif'" font-size="20.2067">Message queue</text>
	<g>
		<g opacity="0.6">
			<path fill="#C6F7DE" d="M617.643,717.892c0,1.559-1.275,2.834-2.835,2.834h-9.557c-1.56,0-2.835-1.275-2.835-2.834v-9.558
				c0-1.559,1.275-2.834,2.835-2.834h9.557c1.56,0,2.835,1.275,2.835,2.834V717.892z"/>
			<path fill="none" stroke="#000000" stroke-width="1.7606" stroke-miterlimit="10" d="M617.643,717.892
				c0,1.559-1.275,2.834-2.835,2.834h-9.557c-1.56,0-2.835-1.275-2.835-2.834v-9.558c0-1.559,1.275-2.834,2.835-2.834h9.557
				c1.56,0,2.835,1.275,2.835,2.834V717.892z"/>
		</g>
		<g opacity="0.6">
			<path fill="#C6F7DE" d="M596.203,717.892c0,1.559-1.275,2.834-2.835,2.834h-9.557c-1.56,0-2.835-1.275-2.835-2.834v-9.558
				c0-1.559,1.275-2.834,2.835-2.834h9.557c1.56,0,2.835,1.275,2.835,2.834V717.892z"/>
			<path fill="none" stroke="#000000" stroke-width="1.7606" stroke-miterlimit="10" d="M596.203,717.892
				c0,1.559-1.275,2.834-2.835,2.834h-9.557c-1.56,0-2.835-1.275-2.835-2.834v-9.558c0-1.559,1.275-2.834,2.835-2.834h9.557
				c1.56,0,2.835,1.275,2.835,2.834V717.892z"/>
		</g>
		<g opacity="0.6">
			<path fill="#C6F7DE" d="M639.082,717.892c0,1.559-1.275,2.834-2.835,2.834h-9.557c-1.56,0-2.835-1.275-2.835-2.834v-9.558
				c0-1.559,1.275-2.834,2.835-2.834h9.557c1.56,0,2.835,1.275,2.835,2.834V717.892z"/>
			<path fill="none" stroke="#000000" stroke-width="1.7606" stroke-miterlimit="10" d="M639.082,717.892
				c0,1.559-1.275,2.834-2.835,2.834h-9.557c-1.56,0-2.835-1.275-2.835-2.834v-9.558c0-1.559,1.275-2.834,2.835-2.834h9.557
				c1.56,0,2.835,1.275,2.835,2.834V717.892z"/>
		</g>
		<g opacity="0.6">
			<path fill="#C6F7DE" d="M660.522,717.892c0,1.559-1.275,2.834-2.835,2.834h-9.557c-1.56,0-2.835-1.275-2.835-2.834v-9.558
				c0-1.559,1.275-2.834,2.835-2.834h9.557c1.56,0,2.835,1.275,2.835,2.834V717.892z"/>
			<path fill="none" stroke="#000000" stroke-width="1.7606" stroke-miterlimit="10" d="M660.522,717.892
				c0,1.559-1.275,2.834-2.835,2.834h-9.557c-1.56,0-2.835-1.275-2.835-2.834v-9.558c0-1.559,1.275-2.834,2.835-2.834h9.557
				c1.56,0,2.835,1.275,2.835,2.834V717.892z"/>
		</g>
		<g opacity="0.6">
			<path fill="#C6F7DE" d="M681.96,717.892c0,1.559-1.275,2.834-2.835,2.834h-9.557c-1.56,0-2.835-1.275-2.835-2.834v-9.558
				c0-1.559,1.275-2.834,2.835-2.834h9.557c1.56,0,2.835,1.275,2.835,2.834V717.892z"/>
			<path fill="none" stroke="#000000" stroke-width="1.7606" stroke-miterlimit="10" d="M681.96,717.892
				c0,1.559-1.275,2.834-2.835,2.834h-9.557c-1.56,0-2.835-1.275-2.835-2.834v-9.558c0-1.559,1.275-2.834,2.835-2.834h9.557
				c1.56,0,2.835,1.275,2.835,2.834V717.892z"/>
		</g>
		<g opacity="0.6">
			<path fill="#C6F7DE" d="M703.4,717.892c0,1.559-1.275,2.834-2.835,2.834h-9.557c-1.56,0-2.835-1.275-2.835-2.834v-9.558
				c0-1.559,1.275-2.834,2.835-2.834h9.557c1.56,0,2.835,1.275,2.835,2.834V717.892z"/>
			<path fill="none" stroke="#000000" stroke-width="1.7606" stroke-miterlimit="10" d="M703.4,717.892
				c0,1.559-1.275,2.834-2.835,2.834h-9.557c-1.56,0-2.835-1.275-2.835-2.834v-9.558c0-1.559,1.275-2.834,2.835-2.834h9.557
				c1.56,0,2.835,1.275,2.835,2.834V717.892z"/>
		</g>
		<g opacity="0.6">
			<path fill="#C6F7DE" d="M724.839,717.892c0,1.559-1.275,2.834-2.835,2.834h-9.557c-1.56,0-2.835-1.275-2.835-2.834v-9.558
				c0-1.559,1.275-2.834,2.835-2.834h9.557c1.56,0,2.835,1.275,2.835,2.834V717.892z"/>
			<path fill="none" stroke="#000000" stroke-width="1.7606" stroke-miterlimit="10" d="M724.839,717.892
				c0,1.559-1.275,2.834-2.835,2.834h-9.557c-1.56,0-2.835-1.275-2.835-2.834v-9.558c0-1.559,1.275-2.834,2.835-2.834h9.557
				c1.56,0,2.835,1.275,2.835,2.834V717.892z"/>
		</g>
		<g opacity="0.6">
			<path fill="#C6F7DE" d="M746.279,717.892c0,1.559-1.275,2.834-2.835,2.834h-9.557c-1.56,0-2.835-1.275-2.835-2.834v-9.558
				c0-1.559,1.275-2.834,2.835-2.834h9.557c1.56,0,2.835,1.275,2.835,2.834V717.892z"/>
			<path fill="none" stroke="#000000" stroke-width="1.7606" stroke-miterlimit="10" d="M746.279,717.892
				c0,1.559-1.275,2.834-2.835,2.834h-9.557c-1.56,0-2.835-1.275-2.835-2.834v-9.558c0-1.559,1.275-2.834,2.835-2.834h9.557
				c1.56,0,2.835,1.275,2.835,2.834V717.892z"/>
		</g>
		<g opacity="0.6">
			<path fill="#C6F7DE" d="M767.718,717.892c0,1.559-1.275,2.834-2.835,2.834h-9.557c-1.56,0-2.835-1.275-2.835-2.834v-9.558
				c0-1.559,1.275-2.834,2.835-2.834h9.557c1.56,0,2.835,1.275,2.835,2.834V717.892z"/>
			<path fill="none" stroke="#000000" stroke-width="1.7606" stroke-miterlimit="10" d="M767.718,717.892
				c0,1.559-1.275,2.834-2.835,2.834h-9.557c-1.56,0-2.835-1.275-2.835-2.834v-9.558c0-1.559,1.275-2.834,2.835-2.834h9.557
				c1.56,0,2.835,1.275,2.835,2.834V717.892z"/>
		</g>
	</g>
	<rect x="612.274" y="859.387" fill="none" width="123.605" height="104.165"/>
	<text transform="matrix(1 0 0 1 612.2737 870.0273)"><tspan x="0" y="0" fill="#515151" font-family="'Open Sans'" font-size="14">Text, temporal, </tspan><tspan x="0" y="16.8" fill="#515151" font-family="'Open Sans'" font-size="14">and geospatial </tspan><tspan x="0" y="33.6" fill="#515151" font-family="'Open Sans'" font-size="14">indexes.</tspan></text>
	<rect x="441.441" y="1135.131" fill="none" width="471.06" height="37.369"/>
	<text transform="matrix(1 0 0 1 441.4407 1145.7715)"><tspan x="0" y="0" fill="#515151" font-family="'Open Sans'" font-size="14">RESTful geocoding API. Accepts search queries and returns GeoJSON </tspan><tspan x="0" y="16.799" fill="#515151" font-family="'Open Sans'" font-size="14">FeatureCollections where one Feature represents one </tspan><tspan x="354.04" y="16.799" fill="#515151" font-family="'Open Sans'" font-style="italic" font-size="14">place concept</tspan><tspan x="438.491" y="16.799" fill="#515151" font-family="'Open Sans'" font-size="14">.</tspan></text>
	<rect x="441.634" y="859.387" fill="none" width="123.605" height="104.165"/>
	<text transform="matrix(1 0 0 1 441.634 870.0273)"><tspan x="0" y="0" fill="#515151" font-family="'Open Sans'" font-size="14">Graph database, </tspan><tspan x="0" y="16.8" fill="#515151" font-family="'Open Sans'" font-size="14">containing PiTs, </tspan><tspan x="0" y="33.6" fill="#515151" font-family="'Open Sans'" font-size="14">and relationships </tspan><tspan x="0" y="50.4" fill="#515151" font-family="'Open Sans'" font-size="14">between those </tspan><tspan x="0" y="67.2" fill="#515151" font-family="'Open Sans'" font-size="14">PiTs.</tspan></text>
	<text transform="matrix(1 0 0 1 642.2737 381.0347)" opacity="0.7" font-family="'Bree Serif'" font-size="20.2067">Histograph Import</text>
	<rect x="642.274" y="392.387" fill="none" width="191.542" height="29.739"/>
	<text transform="matrix(1 0 0 1 642.2737 403.0273)"><tspan x="0" y="0" fill="#515151" font-family="'Open Sans'" font-size="14">Imports directory structure </tspan><tspan x="0" y="16.8" fill="#515151" font-family="'Open Sans'" font-size="14">containing multiple layers</tspan></text>
	<rect x="551.564" y="665.374" fill="none" width="252.937" height="37.043"/>
	<text transform="matrix(1 0 0 1 551.5637 676.0142)"><tspan x="0" y="0" fill="#515151" font-family="'Open Sans'" font-size="14">Queue containing atomic actions, e.g. </tspan><tspan x="0" y="16.8" fill="#515151" font-family="'Consolas'" font-size="14">add PiT</tspan><tspan x="53.881" y="16.8" fill="#515151" font-family="'Open Sans'" font-size="14">, </tspan><tspan x="60.949" y="16.8" fill="#515151" font-family="'Consolas'" font-size="14">remove relation</tspan><tspan x="176.408" y="16.8" fill="#515151" font-family="'Open Sans'" font-size="14">, etc...</tspan></text>
	<rect x="438.075" y="531.388" fill="none" width="472.542" height="29.739"/>
	<text transform="matrix(1 0 0 1 438.0754 542.0283)"><tspan x="0" y="0" fill="#515151" font-family="'Open Sans'" font-size="14">Bulk import and export of PiTs and relations into Histograph. IO accepts </tspan><tspan x="0" y="16.8" fill="#515151" font-family="'Open Sans'" font-size="14">NDJSON files, parses, checks and diffs them, and adds actions to queue.</tspan></text>
	<rect x="779.441" y="885.387" fill="none" width="123.605" height="118.113"/>
	<text transform="matrix(1 0 0 1 779.4407 896.0273)"><tspan x="0" y="0" fill="#515151" font-family="'Open Sans'" font-size="14">Deconstructs PiT </tspan><tspan x="0" y="16.8" fill="#515151" font-family="'Open Sans'" font-size="14">relations into </tspan><tspan x="0" y="33.6" fill="#515151" font-family="'Open Sans'" font-size="14">atomic relations, </tspan><tspan x="0" y="50.4" fill="#515151" font-family="'Open Sans'" font-size="14">and finds new </tspan><tspan x="0" y="67.2" fill="#515151" font-family="'Open Sans'" font-size="14">geospatial and </tspan><tspan x="0" y="84" fill="#515151" font-family="'Open Sans'" font-size="14">temporal rela</tspan><tspan x="88.43" y="84" fill="#515151" font-family="'Open Sans'" font-size="14">-</tspan><tspan x="0" y="100.8" fill="#515151" font-family="'Open Sans'" font-size="14">tions.</tspan></text>
	<rect x="443.008" y="1316.552" fill="none" width="123.605" height="34.948"/>
	<text transform="matrix(1 0 0 1 443.0081 1327.1914)"><tspan x="0" y="0" fill="#515151" font-family="'Open Sans'" font-size="14">Shows PiTs on </tspan><tspan x="0" y="16.801" fill="#515151" font-family="'Open Sans'" font-size="14">map</tspan></text>
	<rect x="612.698" y="1316.552" fill="none" width="123.605" height="34.948"/>
	<text transform="matrix(1 0 0 1 612.6975 1327.1914)"><tspan x="0" y="0" fill="#515151" font-family="'Open Sans'" font-size="14">Shows PiTs and </tspan><tspan x="0" y="16.801" fill="#515151" font-family="'Open Sans'" font-size="14">their relations</tspan></text>
</g>
</svg>
