<?xml version="1.0" encoding="utf-8"?>
<!-- Generator: Adobe Illustrator 16.0.4, SVG Export Plug-In . SVG Version: 6.00 Build 0)  -->
<!DOCTYPE svg PUBLIC "-//W3C//DTD SVG 1.1//EN" "http://www.w3.org/Graphics/SVG/1.1/DTD/svg11.dtd">
<svg version="1.1" id="Layer_1" xmlns="http://www.w3.org/2000/svg" xmlns:xlink="http://www.w3.org/1999/xlink" x="0px" y="0px"
	 width="247.424px" height="218.096px" viewBox="21.302 14.049 247.424 218.096"
	 enable-background="new 21.302 14.049 247.424 218.096" xml:space="preserve">
<circle fill="#4ABB84" cx="90.29" cy="123.098" r="4.459"/>
<circle fill="#4ABB84" cx="199.735" cy="123.098" r="4.459"/>
<path opacity="0.6" fill="#4ABB84" enable-background="new    " d="M266.816,115.966l-54.729-94.785
	c-2.547-4.414-7.256-7.132-12.354-7.132H90.29c-5.096,0-9.804,2.718-12.352,7.132l-54.725,94.785c-2.548,4.413-2.548,9.851,0,14.263
	l54.725,94.785c2.548,4.414,7.256,7.133,12.352,7.133h109.444c5.098,0,9.807-2.719,12.354-7.133l54.729-94.785
	C269.363,125.816,269.363,120.378,266.816,115.966z M199.734,23.853c2.463,0,4.459,1.997,4.459,4.46s-1.996,4.46-4.459,4.46
	s-4.459-1.997-4.459-4.46S197.271,23.853,199.734,23.853z M90.289,23.853c2.463,0,4.459,1.997,4.459,4.46s-1.996,4.46-4.459,4.46
	s-4.459-1.997-4.459-4.46S87.826,23.853,90.289,23.853z M35.564,127.559c-2.463,0-4.459-1.998-4.459-4.461s1.996-4.459,4.459-4.459
	c2.464,0,4.459,1.997,4.459,4.459S38.028,127.559,35.564,127.559z M90.289,222.343c-2.463,0-4.459-1.997-4.459-4.46
	s1.996-4.46,4.459-4.46s4.459,1.997,4.459,4.46S92.752,222.343,90.289,222.343z M199.734,222.343c-2.463,0-4.459-1.997-4.459-4.46
	s1.996-4.46,4.459-4.46s4.459,1.997,4.459,4.46S202.198,222.343,199.734,222.343z M191.5,203.62H98.525l-46.49-80.522l46.49-80.521
	H191.5l46.49,80.521L191.5,203.62z M254.46,127.559c-2.463,0-4.459-1.998-4.459-4.461s1.996-4.459,4.459-4.459
	s4.459,1.997,4.459,4.459S256.923,127.559,254.46,127.559z"/>
<path opacity="0.6" fill="#4ABB84" enable-background="new    " d="M199.734,14.049c-7.875,0-14.263,6.386-14.263,14.263v189.57
	c0,7.878,6.388,14.263,14.263,14.263c7.88,0,14.264-6.385,14.264-14.263V28.312C213.998,20.435,207.614,14.049,199.734,14.049z
	 M199.734,222.343c-2.463,0-4.459-1.997-4.459-4.46s1.996-4.46,4.459-4.46s4.459,1.997,4.459,4.46S202.198,222.343,199.734,222.343z
	 M199.734,32.773c-2.463,0-4.459-1.997-4.459-4.46s1.996-4.46,4.459-4.46s4.459,1.997,4.459,4.46S202.198,32.773,199.734,32.773z"/>
<path opacity="0.8" fill="#4ABB84" enable-background="new    " d="M199.736,14.049c-7.879,0-14.263,6.386-14.263,14.263v80.522
	h-80.919V28.312c0-7.877-6.387-14.263-14.263-14.263c-7.879,0-14.263,6.386-14.263,14.263v189.57
	c0,7.878,6.384,14.263,14.263,14.263c7.876,0,14.263-6.385,14.263-14.263v-80.522h80.919v80.522c0,7.878,6.384,14.263,14.263,14.263
	c7.876,0,14.264-6.385,14.264-14.263V28.312C214,20.435,207.612,14.049,199.736,14.049z M90.289,222.343
	c-2.463,0-4.459-1.997-4.459-4.46s1.996-4.46,4.459-4.46s4.459,1.997,4.459,4.46S92.752,222.343,90.289,222.343z M90.289,32.773
	c-2.463,0-4.459-1.997-4.459-4.46s1.996-4.46,4.459-4.46s4.459,1.997,4.459,4.46S92.752,32.773,90.289,32.773z M199.734,222.343
	c-2.463,0-4.459-1.997-4.459-4.46s1.996-4.46,4.459-4.46s4.459,1.997,4.459,4.46S202.198,222.343,199.734,222.343z M199.734,32.773
	c-2.463,0-4.459-1.997-4.459-4.46s1.996-4.46,4.459-4.46s4.459,1.997,4.459,4.46S202.198,32.773,199.734,32.773z"/>
<path opacity="0.6" fill="#4ABB84" enable-background="new    " d="M90.29,14.049c-7.877,0-14.263,6.386-14.263,14.263v189.57
	c0,7.878,6.386,14.263,14.263,14.263c7.878,0,14.263-6.385,14.263-14.263V28.312C104.553,20.435,98.168,14.049,90.29,14.049z
	 M90.289,222.343c-2.463,0-4.459-1.997-4.459-4.46s1.996-4.46,4.459-4.46s4.459,1.997,4.459,4.46S92.752,222.343,90.289,222.343z
	 M90.289,32.773c-2.463,0-4.459-1.997-4.459-4.46s1.996-4.46,4.459-4.46s4.459,1.997,4.459,4.46S92.752,32.773,90.289,32.773z"/>
</svg>
